<svg width="32" height="32" viewBox="0 0 32 32" fill="none" xmlns="http://www.w3.org/2000/svg">
<path d="M6.66667 29.3334C5.93333 29.3334 5.30556 29.0722 4.78333 28.55C4.26111 28.0278 4 27.4 4 26.6667V8.00002C4 7.26669 4.26111 6.63891 4.78333 6.11669C5.30556 5.59447 5.93333 5.33335 6.66667 5.33335H8V2.66669H10.6667V5.33335H21.3333V2.66669H24V5.33335H25.3333C26.0667 5.33335 26.6944 5.59447 27.2167 6.11669C27.7389 6.63891 28 7.26669 28 8.00002V15.5667C27.5778 15.3667 27.1444 15.2 26.7 15.0667C26.2556 14.9334 25.8 14.8334 25.3333 14.7667V13.3334H6.66667V26.6667H15.0667C15.2222 27.1556 15.4056 27.6222 15.6167 28.0667C15.8278 28.5111 16.0778 28.9334 16.3667 29.3334H6.66667ZM24 30.6667C22.1556 30.6667 20.5833 30.0167 19.2833 28.7167C17.9833 27.4167 17.3333 25.8445 17.3333 24C17.3333 22.1556 17.9833 20.5834 19.2833 19.2834C20.5833 17.9834 22.1556 17.3334 24 17.3334C25.8444 17.3334 27.4167 17.9834 28.7167 19.2834C30.0167 20.5834 30.6667 22.1556 30.6667 24C30.6667 25.8445 30.0167 27.4167 28.7167 28.7167C27.4167 30.0167 25.8444 30.6667 24 30.6667ZM26.2333 27.1667L27.1667 26.2334L24.6667 23.7334V20H23.3333V24.2667L26.2333 27.1667Z" fill="white"/>
</svg>
