<svg width="192" height="24" viewBox="0 0 192 24" fill="none" xmlns="http://www.w3.org/2000/svg">
<path d="M95.6123 20.6822H89.1449V3.39208H95.6123V20.6822ZM89.7765 20.0506H94.9807V4.02366H89.7765V20.0506ZM104.611 20.6822H98.2737V3.39208H111.514C113.411 3.23848 115.3 3.77099 116.837 4.89271C117.499 5.49815 118.012 6.24832 118.336 7.08466C118.66 7.92101 118.786 8.82092 118.705 9.71418C118.8 11.2577 118.309 12.7801 117.33 13.9773C116.171 15.3062 114.244 15.9908 111.601 16.0148C110.936 16.0325 105.947 16.0148 104.615 16.0148L104.611 20.6822ZM98.9015 20.0506H103.979V15.3769H104.296C104.361 15.3769 110.837 15.3971 111.586 15.3769C114.048 15.3554 115.818 14.7453 116.852 13.5542C117.724 12.471 118.156 11.1001 118.065 9.71292C118.143 8.91255 118.035 8.10503 117.75 7.35301C117.465 6.60099 117.011 5.92467 116.423 5.3765C114.997 4.35347 113.254 3.87325 111.505 4.02239H98.9053L98.9015 20.0506ZM110.173 12.1306H103.936V7.42408H110.214C110.659 7.36259 111.113 7.41453 111.532 7.57506C111.952 7.73561 112.324 7.99955 112.614 8.34239C112.878 8.78063 113.002 9.28847 112.971 9.79882C112.994 10.2726 112.892 10.7443 112.674 11.1656C112.374 11.5267 111.987 11.8046 111.549 11.9728C111.111 12.1409 110.637 12.1935 110.173 12.1256V12.1306ZM104.568 11.499H110.173C111.208 11.499 111.85 11.283 112.134 10.8384C112.291 10.5152 112.362 10.1572 112.34 9.79882C112.368 9.42247 112.286 9.04615 112.105 8.71503L112.098 8.70366C111.797 8.26155 111.2 8.05566 110.214 8.05566H104.568V11.499ZM130.232 20.9373C124.56 20.9373 121.175 19.5289 119.885 16.6325C119.674 16.073 119.531 15.4904 119.458 14.8969L119.403 14.5331H126.15L126.195 14.7984C126.246 15.0677 126.361 15.3212 126.528 15.5386C126.795 15.8607 127.684 16.4013 130.635 16.4013C134.182 16.4013 134.182 15.7786 134.182 15.4439C134.182 14.8792 133.771 14.686 130.878 14.3778L130.329 14.326C129.24 14.2237 127.863 14.0936 127.234 14.0392C121.929 13.5592 119.56 11.9108 119.56 8.69608C119.56 5.31966 123.591 3.13818 129.83 3.13818C134.919 3.13818 138.198 4.47966 139.574 7.1285C139.9 7.74464 140.12 8.41186 140.222 9.10155L140.266 9.4565H133.511L133.483 9.17103C133.456 8.94793 133.362 8.73863 133.21 8.57229C132.958 8.23376 132.159 7.67418 129.681 7.67418C126.638 7.67418 126.219 8.06324 126.219 8.4826C126.219 9.04218 127.18 9.2405 130.261 9.57018C131.545 9.67503 133.611 9.88724 134.318 9.97313C138.766 10.4557 140.75 12.0637 140.75 15.1887C140.751 17.8098 138.926 20.9373 130.232 20.9373ZM120.14 15.1647C120.204 15.5813 120.312 15.9896 120.465 16.3824C121.64 19.0211 124.835 20.3058 130.232 20.3058C134.744 20.3058 140.123 19.4216 140.123 15.1887C140.123 12.4186 138.368 11.0468 134.251 10.6009C133.544 10.515 131.491 10.3041 130.209 10.198C126.925 9.84176 125.59 9.65229 125.59 8.4826C125.59 7.2725 127.028 7.04261 129.683 7.04261C131.782 7.04261 133.137 7.42155 133.712 8.18576C133.868 8.37404 133.987 8.59117 134.06 8.82492H139.535C139.425 8.33639 139.251 7.86453 139.017 7.42155C137.754 4.99755 134.668 3.76976 129.832 3.76976C123.978 3.76976 120.195 5.70366 120.195 8.69608C120.195 11.5508 122.318 12.9605 127.292 13.4102C127.924 13.4645 129.299 13.5946 130.391 13.6982L130.944 13.75C133.631 14.0329 134.816 14.2098 134.816 15.4439C134.816 16.7727 133.283 17.0329 130.637 17.0329C128.189 17.0329 126.643 16.6653 126.046 15.9416C125.861 15.7108 125.722 15.4472 125.636 15.1647H120.14ZM152.75 20.9159C146.156 20.9159 142.518 18.2493 142.518 13.4064V3.39208H148.9V13.4064C148.9 15.0674 150.387 16.0199 152.977 16.0199C155.453 16.0199 156.99 15.0258 156.99 13.4279V3.39208H163.306V13.9369C163.312 18.3719 159.461 20.9159 152.746 20.9159H152.75ZM143.15 4.02366V13.4064C143.15 19.3912 149.16 20.2843 152.75 20.2843C156.461 20.2843 162.685 19.4594 162.685 13.9369V4.02366H157.632V13.4279C157.632 15.3858 155.808 16.6514 152.987 16.6514C150.039 16.6514 148.278 15.4388 148.278 13.4064V4.02366H143.15ZM190.07 20.6822H184.047V12.8759L180.632 20.6822H175.378L171.998 12.891V20.6822H165.954V3.39208H173.904L178.035 12.9251L182.365 3.39208H190.078L190.07 20.6822ZM184.679 20.0506H189.438V4.02366H182.766L178.014 14.4813L173.485 4.02366H166.58V20.0506H171.361V9.85187L175.782 20.0544H180.203L184.671 9.86703L184.679 20.0506ZM7.6472 3.70787H1.89478V20.3664H17.7904V15.9314H7.6472V3.70787ZM29.4013 3.32892C22.0586 3.32892 18.1971 6.80892 18.1971 11.9184C18.1971 17.691 22.2506 20.619 29.4013 20.619C37.2733 20.619 40.584 17.2237 40.584 11.9184C40.584 6.53103 36.8489 3.32639 29.4013 3.32639V3.32892ZM29.3798 7.65776C29.8797 7.65541 30.3792 7.68452 30.8754 7.74492L24.4447 14.1757C24.1404 13.4874 23.992 12.7402 24.0101 11.9879C24.0101 9.37439 25.3264 7.65524 29.3798 7.65524V7.65776ZM29.4013 16.3584C28.9197 16.3605 28.4384 16.3335 27.96 16.2776L34.4021 9.83545C34.6951 10.5124 34.8353 11.2455 34.8127 11.9828C34.8127 14.5256 33.6 16.3559 29.4013 16.3559V16.3584ZM51.9815 14.0847H57.9019C57.8148 14.4956 57.6331 14.8805 57.3714 15.2089C56.144 16.2088 54.5776 16.6954 52.9996 16.5668C52.2053 16.6518 51.4022 16.565 50.6445 16.3124C49.8867 16.0599 49.192 15.6474 48.6076 15.1028C48.009 14.2248 47.7247 13.1703 47.8005 12.1104C47.7036 10.9998 48.0128 9.89168 48.6708 8.99166C49.4981 8.05692 50.899 7.65397 52.9579 7.65397C54.268 7.54551 55.5763 7.88195 56.6716 8.60892C57.0168 8.88313 57.2749 9.25176 57.4144 9.66997H62.9053C62.8654 8.98088 62.6997 8.30492 62.4165 7.67545C61.1015 5.00134 58.0447 3.40976 52.8468 3.40976C48.3259 3.40976 45.2918 4.78913 43.6156 6.86955C42.5086 8.3719 41.9403 10.2036 42.0026 12.0687C41.9309 13.9761 42.4846 15.8545 43.579 17.4182C45.235 19.5656 48.1845 20.6216 51.7289 20.6216C54.0853 20.7859 56.4257 20.1259 58.3491 18.7546L58.4981 20.3664H63.0594V10.4986H51.9815V14.0847ZM76.0055 3.32513C68.664 3.32513 64.8013 6.80513 64.8013 11.9146C64.8013 17.6872 68.8535 20.6152 76.0055 20.6152C83.8788 20.6152 87.1895 17.2199 87.1895 11.9146C87.1895 6.53103 83.4544 3.32639 76.0055 3.32639V3.32513ZM75.9853 7.65397C76.472 7.65253 76.9583 7.68037 77.4417 7.73734L71.0363 14.1466C70.7414 13.4659 70.5979 12.7295 70.6156 11.9879C70.6106 9.37439 71.9318 7.65397 75.9853 7.65397ZM76.0055 16.3546C75.5111 16.3568 75.0171 16.328 74.5264 16.2687L80.9899 9.80387C81.294 10.4898 81.4395 11.2354 81.4156 11.9853C81.4182 14.5256 80.2106 16.3559 76.0055 16.3559V16.3546Z" fill="#3F3C3D"/>
</svg>
