<svg width="24" height="23" viewBox="0 0 24 23" fill="none" xmlns="http://www.w3.org/2000/svg">
<path d="M12.2231 0.399414C6.01187 0.399414 0.977173 5.43506 0.977173 11.6453C0.977173 17.8565 6.01187 22.8912 12.2231 22.8912C18.4333 22.8912 23.469 17.8556 23.469 11.6453C23.469 5.43506 18.4333 0.399414 12.2231 0.399414ZM9.46804 14.6652C9.46804 15.273 8.97553 15.7645 8.3687 15.7645C7.76091 15.7645 7.26935 15.273 7.26935 14.6652V9.9782C7.26935 9.37041 7.76091 8.8779 8.3687 8.8779C8.97553 8.8779 9.46804 9.37041 9.46804 9.9782V14.6652ZM17.234 14.5861C17.234 15.4454 16.7319 15.7531 15.8726 15.7531H11.9192C11.0599 15.7531 10.3635 15.0567 10.3635 14.1974V10.3088C10.3635 10.3088 10.2864 9.66192 11.0027 9.05414C11.4076 8.71023 12.0087 8.05387 12.4288 7.25746C13.2634 5.67513 13.7625 5.21405 14.1426 5.33789C15.5506 5.79421 14.8466 7.88144 14.3922 8.7531H15.6783C16.5366 8.7531 17.234 9.44948 17.234 10.3088V14.5861Z" fill="white"/>
</svg>
